<svg xmlns="http://www.w3.org/2000/svg" xmlns:xlink="http://www.w3.org/1999/xlink" version="1.0" x="0px" y="0px" viewBox="0 0 100 125" enable-background="new 0 0 100 100" xml:space="preserve"><path d="M47.999,71.895c0,1.104,0.896,2,2,2s2-0.896,2-2v-4.809h3.203c5.264,0,9.546-4.281,9.546-9.543  c0-5.263-4.282-9.545-9.546-9.545h-3.203V36.914h9.472c1.104,0,2-0.896,2-2s-0.896-2-2-2h-9.472v-4.812c0-1.104-0.896-2-2-2  s-2,0.896-2,2v4.812h-3.196c-5.265,0-9.547,4.281-9.547,9.543c0,5.261,4.282,9.541,9.547,9.541h3.196v11.088H37.256  c-1.104,0-2,0.896-2,2s0.896,2,2,2h10.743V71.895z M44.803,36.914h3.196v11.084h-3.196c-3.059,0-5.547-2.486-5.547-5.541  C39.256,39.4,41.744,36.914,44.803,36.914z M55.202,63.086h-3.203V51.998h3.203c3.058,0,5.546,2.487,5.546,5.545  C60.748,60.6,58.26,63.086,55.202,63.086z"/><path d="M10.238,25.66c0,0.018,0.004,0.034,0.006,0.051c0.009,0.106,0.024,0.211,0.051,0.315c0.008,0.034,0.021,0.066,0.031,0.1  c0.026,0.084,0.054,0.167,0.091,0.248c0.023,0.051,0.052,0.098,0.079,0.146c0.034,0.059,0.066,0.118,0.105,0.174  c0.046,0.065,0.1,0.124,0.152,0.183c0.031,0.035,0.06,0.07,0.094,0.103c0.074,0.072,0.158,0.135,0.244,0.196  c0.018,0.011,0.03,0.026,0.047,0.037c0.004,0.002,0.009,0.003,0.013,0.006c0.025,0.016,0.046,0.037,0.072,0.053l16.018,9.369  c0.317,0.186,0.665,0.274,1.008,0.274c0.688,0,1.356-0.354,1.729-0.991c0.558-0.954,0.236-2.178-0.717-2.736l-14.162-8.284  C23.183,13.661,36.07,7,49.999,7c1.104,0,2-0.896,2-2s-0.896-2-2-2C34.01,3,19.263,11.018,10.55,24.447  c-0.17,0.262-0.264,0.548-0.3,0.839c0,0.001,0,0.003,0,0.004C10.234,25.414,10.229,25.537,10.238,25.66z"/><path d="M35.031,90.322C18.265,84.098,7,67.893,7,49.998c0-3.238,0.363-6.468,1.079-9.599c0.246-1.077-0.428-2.149-1.505-2.396  c-1.073-0.246-2.149,0.427-2.396,1.504C3.396,42.931,3,46.461,3,49.998c0,19.559,12.312,37.271,30.639,44.074  c0.229,0.085,0.465,0.125,0.696,0.125c0.812,0,1.576-0.499,1.875-1.305C36.595,91.858,36.066,90.707,35.031,90.322z"/><path d="M68.494,6.785c-0.009-0.004-0.016-0.01-0.024-0.014c-0.011-0.005-0.022-0.007-0.034-0.012  c-0.048-0.021-0.095-0.043-0.143-0.063c-1.02-0.432-2.191,0.045-2.621,1.062c-0.087,0.205-0.127,0.415-0.144,0.625l-6.802,14.814  c-0.461,1.004-0.021,2.191,0.982,2.652c0.271,0.125,0.555,0.183,0.834,0.183c0.757,0,1.481-0.433,1.818-1.166l6.258-13.629  C83.496,18.381,93,33.373,93,49.998C93,73.039,74.785,91.9,51.999,92.949V81.436c0-1.104-0.896-2-2-2s-2,0.896-2,2V95  c0,1.104,0.896,2,2,2C75.915,97,97,75.915,97,49.998C97,31.143,85.816,14.207,68.494,6.785z"/><text x="0" y="115" fill="#000000" font-size="5px" font-weight="bold" font-family="'Helvetica Neue', Helvetica, Arial-Unicode, Arial, Sans-serif">Created by Lemon Liu</text><text x="0" y="120" fill="#000000" font-size="5px" font-weight="bold" font-family="'Helvetica Neue', Helvetica, Arial-Unicode, Arial, Sans-serif">from the Noun Project</text></svg>