<?xml version="1.0" encoding="utf-8"?>
<!-- Generator: Adobe Illustrator 22.0.1, SVG Export Plug-In . SVG Version: 6.00 Build 0)  -->
<svg version="1.1" id="Layer_1" xmlns="http://www.w3.org/2000/svg" xmlns:xlink="http://www.w3.org/1999/xlink" x="0px" y="0px"
	 viewBox="0 0 294 256.9" style="enable-background:new 0 0 294 256.9;" xml:space="preserve">
<style type="text/css">
	.st0{fill:#3E7A9E;}
	.st1{fill:#3DBDEA;}
</style>
<g>
	<path class="st0" d="M147.1,0.1c23.1,0,46.2,0.1,69.3-0.1c3.5,0,5.4,1.1,7.2,4.2c22.9,39.9,45.8,79.8,68.9,119.6
		c2.1,3.6,1.9,6.2-0.1,9.6c-22.9,39.4-45.6,78.8-68.3,118.3c-2.1,3.6-4.3,5.2-8.6,5.2c-45.7-0.2-91.4-0.1-137.1,0
		c-3.8,0-6.1-1.1-8-4.5c-22.9-39.9-45.9-79.8-69-119.6c-1.9-3.2-1.8-5.5,0.1-8.7c23-39.7,45.9-79.4,68.6-119.2
		C72.2,1.1,74.7,0,78.8,0C101.6,0.2,124.4,0.1,147.1,0.1z M146.7,44.6c-14.7,0-29.4,0.1-44.1-0.1c-3,0-4.7,0.9-6.3,3.6
		C81.7,73.8,66.9,99.5,52.1,125c-1.6,2.7-1.3,4.7,0.2,7.2c14.9,25.6,29.7,51.2,44.4,76.8c1.5,2.6,3.2,3.7,6.2,3.7
		c29.6-0.1,59.2-0.1,88.8,0c3.2,0,5-1.1,6.6-3.9c14.6-25.6,29.2-51.1,44-76.5c1.6-2.7,1.7-4.8,0-7.6c-14.9-25.4-29.6-50.8-44.3-76.4
		c-1.6-2.8-3.4-3.9-6.6-3.8C176.5,44.7,161.6,44.6,146.7,44.6z M147,24.8c16,0,32.1-0.6,48.1,0.2c9.2,0.5,14.5-2.4,18.1-10.7
		c2.7-6.3,3.3-6.2-3.5-6.2c-41.8,0-83.7,0.1-125.5-0.1c-4.2,0-6.6,1.2-8.7,4.9C54.1,50.1,32.6,87.1,11,124.1c-2,3.4-1.8,5.8,0.1,9.1
		c20.7,35.5,41.1,71,61.7,106.5c1.5,2.6,2.5,7.1,5,7.1c2.9-0.1,3.5-4.7,5.3-7.3c0.6-0.9,1-2,1.7-2.9c2.4-3,2.1-5.7,0.1-9.1
		c-18.4-31.6-36.7-63.2-55.1-94.8c-1.8-3-1.8-5.3,0-8.3C48.4,92.7,66.7,60.9,85,29c1.9-3.3,4-4.3,7.7-4.3
		C110.7,24.9,128.8,24.8,147,24.8z"/>
	<g>
		<path class="st0" d="M202.1,92.8c-1.1-1.1-2.6-1.1-3.2-1.1c-7.8,0-15.7,0-23.5,0l-7.5,0c-3.2,0-4.4,1.2-4.4,4.4l0,32.6l0,6.8
			c0,8.7,0,17.4,0,26.1c0,0.5,0,2,1.1,3c1,0.9,2.2,1,2.8,1c0.1,0,0.2,0,0.2,0c2-0.1,4,0,6,0c0.8,0,1.7,0,2.5,0
			c3.4,0,4.6-1.1,4.6-4.5l0-52.7l3.2,0c5,0,10,0,15.1,0c0.5,0,1.9,0,3-1.1c1-1.1,1-2.4,1-2.9c-0.1-3.5-0.1-6.1,0-8.6
			C203.1,95.4,203.2,93.9,202.1,92.8z"/>
		<path class="st0" d="M145.8,121.9c-5.5,0-11,0-16.5,0l-5.7,0l-5.4,0c-5.7,0-11.5,0-17.2,0c-0.6,0-2,0-3.1,1.1
			c-0.7,0.7-1.1,1.7-1.1,2.9c0,11,0,26,0,36c0,0.4,0,1.8,1,2.8c1.1,1,2.4,1,2.9,1c2.7,0,5.9-0.1,9,0c0.1,0,0.2,0,0.2,0
			c0.9,0,2-0.1,3-1.1c1.1-1.1,1.1-2.6,1.1-3.1c0-5,0-12.4,0-18.4l0-4.3l5.5,0c8.8,0,17.5,0,26.3,0c0.5,0,2.1,0,3.2-1.1
			c0.7-0.7,1.1-1.8,1.1-3c-0.1-3.3-0.1-6,0-8.5c0-0.5,0.1-2-1-3.1C147.9,121.9,146.4,121.9,145.8,121.9z"/>
		<path class="st0" d="M97.9,96.3c0.2,0.3,0.4,0.5,0.6,0.7l3.6,3.5c2.3,2.2,4.7,4.5,7,6.7c1.3,1.3,2.8,1.3,3.4,1.3l2.6,0
			c10.4,0,20.8,0,31.2,0c0,0,0,0,0,0c1.2,0,2.2-0.4,2.9-1.1c1-1.1,1-2.4,1-2.9c0-1.9,0-3.8,0-5.6l0-2.8c0-3.6-1.7-4.3-4.4-4.3
			l-45.9,0c-1,0-1.9,0.6-2.3,1.5c-0.4,0.9-0.3,2,0.3,2.8L97.9,96.3z"/>
	</g>
	<path class="st1" d="M147,24.8c-18.1,0-36.2,0.1-54.4-0.1c-3.6,0-5.8,1.1-7.7,4.3c-18.2,31.9-36.6,63.6-55.1,95.4
		c-1.8,3-1.7,5.3,0,8.3c18.4,31.6,36.6,63.3,55.1,94.8c2,3.4,2.3,6-0.1,9.1c-0.7,0.9-1.1,2-1.7,2.9c-1.8,2.6-2.4,7.2-5.3,7.3
		c-2.5,0-3.5-4.5-5-7.1c-20.6-35.5-41.1-71.1-61.7-106.5c-1.9-3.3-2.1-5.7-0.1-9.1c21.6-37,43.1-74,64.4-111.1
		C77.5,9.2,79.9,8,84.1,8c41.8,0.2,83.7,0.1,125.5,0.1c6.8,0,6.3-0.2,3.5,6.2c-3.6,8.3-8.9,11.2-18.1,10.7
		C179.1,24.1,163,24.8,147,24.8z"/>
</g>
</svg>
